<svg width="805" height="149" viewBox="0 0 805 149" fill="none" xmlns="http://www.w3.org/2000/svg">
<rect x="11.4598" y="33.7781" width="23.2027" height="91.2076" transform="rotate(-0.610389 11.4598 33.7781)" fill="#4045C9"/>
<rect x="39.4095" y="28.6871" width="23.2027" height="95.927" transform="rotate(-0.610389 39.4095 28.6871)" fill="#4045C9"/>
<rect y="22.082" width="101.571" height="92.6138" transform="rotate(-0.610389 0 22.082)" fill="#202020"/>
<rect x="10" width="59" height="86" fill="#C94059"/>
<rect x="79" y="28.1795" width="16.8458" height="14.5614" transform="rotate(-0.610389 79 28.1795)" fill="#C94059"/>
<path d="M123.844 125V54.875L129.688 49.0312L135.531 43.1875H158.906V60.7188H147.219V66.5625H158.906V84.0938H147.219V125H123.844ZM205.656 107.469V101.625H193.969V107.469H205.656ZM182.281 125L176.438 119.156L170.594 113.312V101.625L176.438 95.7812L182.281 89.9375H205.656V84.0938H179.359V66.5625H217.344L223.188 72.4062L229.031 78.25V107.469H231.953V125H205.656V119.156L199.812 125H182.281ZM255.328 125L249.484 119.156L243.641 113.312V43.1875H267.016V107.469H272.859V125H255.328ZM319.609 89.9375V84.0938H307.922V89.9375H319.609ZM296.234 125L290.391 119.156L284.547 113.312V78.25L290.391 72.4062L296.234 66.5625H331.297L337.141 72.4062L342.984 78.25V101.625H307.922V107.469H342.984V125H296.234ZM354.672 125V107.469H383.891V101.625H366.359L360.516 95.7812L354.672 89.9375V78.25L360.516 72.4062L366.359 66.5625H407.266V84.0938H378.047V89.9375H395.578L401.422 95.7812L407.266 101.625V113.312L401.422 119.156L395.578 125H354.672ZM430.641 125L424.797 119.156L418.953 113.312V49.0312H442.328V66.5625H454.016V84.0938H442.328V107.469H454.016V125H430.641ZM465.703 125V66.5625H489.078V125H465.703ZM465.703 60.7188V49.0312H489.078V60.7188H465.703ZM535.828 107.469V84.0938H524.141V107.469H535.828ZM512.453 125L506.609 119.156L500.766 113.312V78.25L506.609 72.4062L512.453 66.5625H547.516L553.359 72.4062L559.203 78.25V113.312L553.359 119.156L547.516 125H512.453ZM570.891 125V107.469H588.422V125H570.891ZM635.172 107.469V84.0938H623.484V107.469H635.172ZM611.797 125L605.953 119.156L600.109 113.312V78.25L605.953 72.4062L611.797 66.5625H635.172V43.1875H658.547V125H611.797ZM705.297 89.9375V84.0938H693.609V89.9375H705.297ZM681.922 125L676.078 119.156L670.234 113.312V78.25L676.078 72.4062L681.922 66.5625H716.984L722.828 72.4062L728.672 78.25V101.625H693.609V107.469H728.672V125H681.922ZM740.359 125V66.5625H763.734V107.469H775.422V66.5625H798.797V113.312L792.953 119.156L787.109 125H740.359Z" fill="black"/>
</svg>
