<svg width="815" height="152" viewBox="0 0 815 152" fill="none" xmlns="http://www.w3.org/2000/svg">
<rect width="23.4909" height="93.0439" transform="matrix(0.999942 -0.0107342 0.0105726 0.999944 11.6021 34.4582)" fill="#4045C9"/>
<rect width="23.4909" height="97.8583" transform="matrix(0.999942 -0.0107342 0.0105726 0.999944 39.8991 29.2647)" fill="#4045C9"/>
<rect width="102.833" height="94.4785" transform="matrix(0.999942 -0.0107342 0.0105726 0.999944 0 22.5266)" fill="#202020"/>
<rect x="10.1242" width="59.7329" height="87.7315" fill="#C94059"/>
<rect width="17.0551" height="14.8545" transform="matrix(0.999942 -0.0107342 0.0105726 0.999944 79.9814 28.7468)" fill="#C94059"/>
<rect width="23.4909" height="93.0439" transform="matrix(0.999942 -0.0107342 0.0105726 0.999944 11.6021 34.4582)" fill="#7478E1"/>
<rect width="23.4909" height="97.8583" transform="matrix(0.999942 -0.0107342 0.0105726 0.999944 39.8991 29.2647)" fill="#7478E1"/>
<rect width="102.833" height="94.4785" transform="matrix(0.999942 -0.0107342 0.0105726 0.999944 0 22.5266)" fill="white"/>
<rect x="10.1242" width="59.7329" height="87.7315" fill="#C94059"/>
<rect width="17.0551" height="14.8545" transform="matrix(0.999942 -0.0107342 0.0105726 0.999944 79.9814 28.7468)" fill="#C94059"/>
<path d="M125.31 125.523V55.3985L131.153 49.5547L136.997 43.711H160.372V61.2422H148.685V67.086H160.372V84.6172H148.685V125.523H125.31ZM207.122 107.992V102.148H195.435V107.992H207.122ZM183.747 125.523L177.903 119.68L172.06 113.836V102.148L177.903 96.3047L183.747 90.461H207.122V84.6172H180.825V67.086H218.81L224.653 72.9297L230.497 78.7735V107.992H233.419V125.523H207.122V119.68L201.278 125.523H183.747ZM256.794 125.523L250.95 119.68L245.106 113.836V43.711H268.481V107.992H274.325V125.523H256.794ZM321.075 90.461V84.6172H309.388V90.461H321.075ZM297.7 125.523L291.856 119.68L286.013 113.836V78.7735L291.856 72.9297L297.7 67.086H332.763L338.606 72.9297L344.45 78.7735V102.148H309.388V107.992H344.45V125.523H297.7ZM356.138 125.523V107.992H385.356V102.148H367.825L361.981 96.3047L356.138 90.461V78.7735L361.981 72.9297L367.825 67.086H408.731V84.6172H379.513V90.461H397.044L402.888 96.3047L408.731 102.148V113.836L402.888 119.68L397.044 125.523H356.138ZM432.106 125.523L426.263 119.68L420.419 113.836V49.5547H443.794V67.086H455.481V84.6172H443.794V107.992H455.481V125.523H432.106ZM467.169 125.523V67.086H490.544V125.523H467.169ZM467.169 61.2422V49.5547H490.544V61.2422H467.169ZM537.294 107.992V84.6172H525.606V107.992H537.294ZM513.919 125.523L508.075 119.68L502.231 113.836V78.7735L508.075 72.9297L513.919 67.086H548.981L554.825 72.9297L560.669 78.7735V113.836L554.825 119.68L548.981 125.523H513.919ZM572.356 125.523V107.992H589.888V125.523H572.356ZM636.638 107.992V84.6172H624.95V107.992H636.638ZM613.263 125.523L607.419 119.68L601.575 113.836V78.7735L607.419 72.9297L613.263 67.086H636.638V43.711H660.013V125.523H613.263ZM706.763 90.461V84.6172H695.075V90.461H706.763ZM683.388 125.523L677.544 119.68L671.7 113.836V78.7735L677.544 72.9297L683.388 67.086H718.45L724.294 72.9297L730.138 78.7735V102.148H695.075V107.992H730.138V125.523H683.388ZM741.825 125.523V67.086H765.2V107.992H776.888V67.086H800.263V113.836L794.419 119.68L788.575 125.523H741.825Z" fill="#EDEDED"/>
</svg>
